<?xml version="1.0" standalone="no"?>
<!DOCTYPE svg PUBLIC "-//W3C//DTD SVG 20010904//EN"
 "http://www.w3.org/TR/2001/REC-SVG-20010904/DTD/svg10.dtd">
<svg version="1.0" xmlns="http://www.w3.org/2000/svg"
 width="829.000000pt" height="829.000000pt" viewBox="0 0 829.000000 829.000000"
 preserveAspectRatio="xMidYMid meet">
<metadata>
Created by potrace 1.14, written by Peter Selinger 2001-2017
</metadata>
<g transform="translate(0.000000,829.000000) scale(0.100000,-0.100000)"
fill="#000000" stroke="none">
<path d="M295 7092 l-30 -27 212 -2905 c116 -1598 212 -2913 212 -2922 1 -17
170 -18 3401 -18 3231 0 3400 1 3401 18 0 9 96 1324 212 2922 l212 2905 -31
27 -32 28 -3763 0 -3764 -1 -30 -27z m728 -237 c221 -57 375 -267 351 -480
-13 -122 -70 -201 -180 -252 -124 -56 -250 -53 -380 12 -218 107 -315 380
-206 580 67 123 247 184 415 140z m1109 -15 c83 -31 168 -98 215 -169 56 -83
77 -149 77 -246 0 -100 -24 -156 -93 -224 -207 -202 -562 -131 -694 138 -30
63 -32 72 -32 181 0 105 2 119 27 166 42 80 105 128 218 166 73 24 202 19 282
-12z m1013 14 c120 -31 233 -123 287 -232 27 -54 33 -79 36 -154 4 -83 3 -92
-26 -151 -80 -162 -267 -259 -442 -229 -217 39 -370 215 -370 426 0 235 260
407 515 340z m1044 5 c204 -47 354 -246 322 -426 -33 -177 -171 -311 -354
-343 -225 -39 -446 117 -488 343 -32 177 109 368 311 423 55 16 150 17 209 3z
m1066 -3 c74 -19 132 -52 190 -107 67 -63 97 -124 103 -211 15 -218 -142 -410
-368 -450 -208 -36 -432 112 -470 311 -28 146 67 324 220 414 91 53 223 71
325 43z m1066 -2 c114 -34 184 -86 226 -168 39 -74 44 -207 13 -300 -67 -203
-284 -333 -490 -296 -89 16 -161 52 -221 111 -81 78 -109 170 -90 290 42 258
317 436 562 363z m1073 -4 c121 -38 189 -114 217 -243 59 -281 -225 -569 -511
-519 -267 47 -371 272 -245 529 96 194 332 296 539 233z m-6333 -1020 c122
-23 244 -107 306 -211 56 -94 77 -222 52 -313 -15 -55 -90 -130 -168 -169 -62
-30 -72 -32 -176 -32 -103 0 -114 2 -177 32 -91 43 -133 77 -185 146 -97 132
-110 324 -30 429 37 48 109 91 187 112 66 18 119 19 191 6z m1058 -5 c109 -26
204 -93 271 -190 43 -63 63 -131 64 -220 1 -70 -2 -86 -26 -126 -37 -62 -98
-115 -177 -153 -61 -29 -74 -31 -171 -31 -121 1 -182 19 -265 83 -109 83 -167
195 -169 327 0 97 21 152 83 212 100 96 245 132 390 98z m1023 4 c124 -27 255
-126 303 -232 56 -121 52 -213 -14 -315 -44 -67 -96 -111 -178 -150 -52 -24
-69 -27 -168 -27 -103 0 -114 2 -178 32 -89 42 -169 119 -209 201 -26 52 -32
79 -36 147 -4 71 -1 90 17 128 80 165 275 256 463 216z m1053 -4 c161 -42 290
-174 311 -317 14 -104 -58 -248 -166 -329 -175 -131 -458 -92 -585 81 -115
157 -106 316 25 447 112 112 267 156 415 118z m2038 5 c270 -44 416 -322 300
-569 -35 -73 -131 -170 -205 -204 -217 -103 -471 -20 -568 184 -126 266 82
580 395 598 11 0 46 -3 78 -9z m1118 -19 c65 -25 131 -70 154 -105 23 -34 45
-122 45 -176 0 -110 -57 -238 -140 -313 -25 -22 -79 -56 -120 -76 -72 -35 -79
-36 -185 -36 -104 0 -114 2 -176 32 -78 39 -153 114 -168 169 -25 91 -4 219
52 313 60 100 182 186 298 211 65 14 176 5 240 -19z m-4145 -986 c154 -44 288
-206 287 -350 0 -74 -25 -127 -94 -200 -191 -202 -546 -147 -673 103 -29 57
-48 150 -39 195 17 89 97 181 198 229 106 49 202 56 321 23z m4082 -5 c29 -10
75 -36 104 -56 67 -49 87 -95 88 -195 0 -164 -83 -296 -235 -371 -161 -80
-359 -54 -475 62 -52 52 -70 94 -70 162 1 290 305 496 588 398z m-6066 -17
c218 -102 315 -342 219 -537 -38 -78 -101 -138 -189 -179 -62 -30 -75 -32
-167 -31 -116 0 -178 20 -268 84 -111 80 -169 193 -171 330 -1 75 3 92 30 150
72 151 195 222 379 217 88 -2 108 -6 167 -34z m4070 -1 c161 -79 252 -253 218
-417 -42 -205 -239 -350 -449 -332 -175 15 -313 122 -362 281 -50 161 16 333
169 438 74 51 142 68 258 65 90 -2 107 -6 166 -35z m-3087 -927 c124 -32 244
-134 286 -243 17 -42 23 -79 23 -142 1 -75 -3 -92 -28 -144 -39 -79 -102 -140
-184 -179 -63 -30 -74 -32 -182 -32 -111 0 -118 1 -185 34 -222 109 -301 360
-174 550 92 137 272 200 444 156z m1033 -9 c71 -26 152 -87 197 -147 139 -189
73 -443 -143 -550 -59 -29 -79 -34 -162 -37 -78 -3 -106 0 -159 18 -114 38
-201 114 -250 219 -22 47 -26 70 -26 146 0 77 4 98 27 147 47 100 144 181 258
214 57 17 200 11 258 -10z m1026 -14 c88 -41 158 -109 199 -191 29 -59 32 -74
32 -156 0 -77 -4 -98 -27 -147 -36 -77 -112 -152 -196 -191 -63 -30 -73 -32
-182 -32 -109 0 -119 2 -182 32 -83 39 -154 108 -194 188 -26 53 -29 71 -29
150 0 77 4 98 27 147 35 75 104 148 177 187 79 42 121 51 223 47 71 -3 98 -9
152 -34z m1947 19 c278 -87 359 -412 154 -617 -29 -29 -80 -65 -120 -85 -67
-33 -74 -34 -185 -34 -108 0 -119 2 -182 32 -82 39 -145 100 -184 179 -25 51
-29 70 -29 144 1 108 28 180 95 252 117 129 292 178 451 129z m1041 -13 c67
-31 136 -91 155 -135 28 -68 8 -203 -41 -282 -40 -63 -106 -120 -184 -159 -74
-36 -79 -37 -186 -37 -99 0 -117 3 -168 27 -62 29 -142 97 -164 139 -31 62 -7
196 52 285 42 63 97 111 171 148 76 38 116 46 219 42 71 -2 103 -8 146 -28z
m-2977 -932 c91 -45 164 -121 195 -204 18 -46 21 -72 18 -137 -7 -138 -81
-245 -212 -306 -122 -56 -251 -56 -371 0 -83 39 -135 88 -175 163 -45 85 -53
193 -20 280 39 105 160 208 276 238 22 5 79 8 127 6 77 -3 97 -8 162 -40z
m1948 6 c81 -38 144 -99 183 -178 25 -50 29 -71 29 -139 -1 -94 -28 -165 -91
-235 -196 -217 -559 -181 -681 69 -52 106 -34 252 45 356 45 60 126 116 207
145 91 31 219 24 308 -18z m977 2 c78 -37 133 -82 150 -124 8 -19 11 -55 7
-96 -10 -133 -100 -254 -235 -317 -62 -30 -74 -32 -177 -32 -103 0 -114 2
-175 31 -121 58 -177 135 -165 228 19 147 134 275 293 327 90 30 218 22 302
-17z m-4904 -869 c72 -21 167 -86 208 -142 145 -198 55 -458 -183 -527 -260
-76 -533 100 -533 342 1 152 93 276 241 323 70 22 199 24 267 4z m1976 -22
c282 -132 282 -493 0 -626 -63 -30 -73 -32 -182 -32 -109 0 -119 2 -182 32
-227 107 -282 373 -113 547 82 84 171 117 310 113 88 -2 108 -6 167 -34z m960
0 c79 -37 142 -98 177 -173 37 -78 37 -192 0 -270 -35 -75 -102 -140 -184
-181 -67 -33 -74 -34 -185 -34 -108 0 -119 2 -182 32 -78 37 -137 92 -175 165
-24 47 -28 64 -28 143 0 79 4 96 28 143 50 94 133 162 242 199 25 8 77 12 140
10 88 -2 108 -6 167 -34z m909 21 c285 -82 340 -439 94 -609 -139 -96 -339
-101 -477 -13 -163 103 -201 320 -83 480 41 55 123 114 198 139 66 23 194 25
268 3z"/>
</g>
</svg>
